<svg xmlns="http://www.w3.org/2000/svg" viewBox="0 0 512 512">
  <defs>
    <!-- Reusable LCD segment: hexagon (gaps via shrink g=3) -->
    <symbol id="seg" overflow="visible">
      <polygon fill="#1DB954" points="-22,0 -17,-5 17,-5 22,0 17,5 -17,5"/>
    </symbol>
    
    <!-- Reusable foot path -->
    <symbol id="foot" overflow="visible">
      <path fill="#ffffff" d="M92.76 249.68c-2.67-.32-6.81-1.65-8.99-2.88-8.38-4.68-13.86-12.16-16.61-22.68-1.02-3.83-1.23-4.93-2.67-13.48-2.62-15.72-5.35-27.63-8.95-39.09-1.88-6.03-3.41-10.15-6.85-18.62-4.13-10.15-5.39-13.88-6.37-18.76-1.04-5.22-1.14-11.82-.25-16.52 2.05-10.83 9.01-21.79 18.76-29.51 5.37-4.25 13.12-8.36 20.43-10.85C89.3 74.54 96 73.4 104.09 73.4c7.55 0 12.42.91 17.45 3.28 2.56 1.18 4.27 2.37 6.28 4.32 3.62 3.49 5.69 7.83 6.3 13.2.61 5.31-.99 12.31-5.12 22.34-1.63 3.96-2.86 6.64-7.7 17.05-5.58 11.99-8.46 20.01-9.75 27.08-.53 2.9-.53 9.75 0 13.33.82 5.67 1.97 10.51 4.68 19.88 4.25 14.68 5.5 22 4.97 29.23-.99 14.02-9.31 24.31-21.32 26.4-1.61.3-5.5.38-7.13.17zM47.66 82.9c-1.27-.23-2.01-.68-3.09-1.88-2.64-2.94-2.94-8.38-.61-10.87 2.14-2.26 5.27-1.63 7.43 1.5.97 1.44 1.57 3.43 1.59 5.46.02 1.73-.04 2.03-.61 3.17-1.04 2.05-2.69 2.98-4.7 2.62zm10.72-8.42c-2.81-.91-4.84-3.53-5.63-7.23-.76-3.62.51-7.23 2.94-8.42 1.14-.55 2.9-.57 4.06-.04 2.86 1.29 5.2 6.11 4.91 10.03-.13 1.54-.89 3.47-1.69 4.34-1.02 1.1-3.3 1.76-4.59 1.33zm12.61-7.55c-5.8-1.84-9.16-11.27-6.16-17.22 2.07-4.08 6.81-4.7 10.22-1.29 5.29 5.29 5.39 15.55.19 18.11-1.44.7-2.9.82-4.25.4m17.54-4.8c-4.97-1.65-8.84-7.38-9.6-14.17-.78-7.04 2.35-12.73 7.51-13.67 4.29-.78 8.99 2.69 11.42 8.46.93 2.18 1.31 3.7 1.57 6.13.59 5.88-1.4 10.92-5.08 12.8-.97.49-1.48.59-3.07.66-1.18.04-2.22-.04-2.75-.21m-7.57-16.06c-.04-.28-.08-.06-.08.47s.04.74.08.49c.04-.28.04-.7 0-.95zm36.74 15.7c-5.92-1.54-11.06-7.28-13.73-15.32-3.68-11.06-1.23-21.89 5.9-26.04 2.73-1.57 6.43-1.9 9.54-.87 6.54 2.2 11.68 8.72 13.94 17.6 1.54 6.11 1.18 12.06-1.04 17.11-2.67 6.01-8.63 9.07-14.62 7.51z"/>
    </symbol>
  </defs>
  
  <!-- Green rounded square IS the scale body -->
  <rect width="512" height="512" rx="80" fill="#1DB954"/>
  
  <!-- ============ DISPLAY UNIT (scaled to 0.78 around its center 256,80) ============ -->
  <g transform="translate(256 80) scale(0.78) translate(-256 -80)">
    <!-- Digits span y=47-157, x=147-366. Display has 16px padding all around. -->
    <rect x="131" y="31" width="250" height="142" rx="18" fill="#ffffff"/>
    
    <!-- DIGIT 1: "7" (y values shifted -10 from previous) -->
    <use href="#seg" x="177" y="52"/>
    <use href="#seg" x="202" y="77"  transform="rotate(90 202 77)"/>
    <use href="#seg" x="202" y="127" transform="rotate(90 202 127)"/>
    
    <!-- DIGIT 2: "2" -->
    <use href="#seg" x="252" y="52"/>
    <use href="#seg" x="277" y="77"  transform="rotate(90 277 77)"/>
    <use href="#seg" x="252" y="102"/>
    <use href="#seg" x="227" y="127" transform="rotate(90 227 127)"/>
    <use href="#seg" x="252" y="152"/>
    
    <!-- DECIMAL POINT -->
    <rect x="288" y="147" width="12" height="12" rx="1" fill="#1DB954"/>
    
    <!-- DIGIT 3: "5" -->
    <use href="#seg" x="336" y="52"/>
    <use href="#seg" x="311" y="77"  transform="rotate(90 311 77)"/>
    <use href="#seg" x="336" y="102"/>
    <use href="#seg" x="361" y="127" transform="rotate(90 361 127)"/>
    <use href="#seg" x="336" y="152"/>
  </g>
  
  <!-- ============ FEET (both use the same #foot symbol, right one mirrored) ============
       Foot bbox 92.8×230.8, center (87.88, 134.37)
       Scale (1.56, 1.3): width ~145, height ~300, center (137.1, 174.7)
       Left center (145, 335): translate (7.9, 160.3)
       Right center (367, 335) mirrored: translate_x = 367+137.1 = 504.1 -->
  
  <use href="#foot" transform="translate(7.9, 160.3) scale(1.56, 1.3)"/>
  <use href="#foot" transform="translate(504.1, 160.3) scale(-1.56, 1.3)"/>
</svg>
